<svg width="109" height="24" viewBox="0 0 109 24" fill="none" xmlns="http://www.w3.org/2000/svg">
<path d="M15.054 20.868L12.584 23.572L0.52 12.054L12.454 0.821999L14.95 3.5L5.278 12.028L15.054 20.868ZM29.5265 21.388H26.3805V13.432H20.2705V21.388H17.1245V2.98H20.2705V10.442H26.3805V2.98H29.5265V21.388ZM45.1181 20.062L42.7781 22.09L37.5781 16.24L35.7841 17.618V21.414H32.6381L32.6641 2.46H33.4701L44.8061 10.962L40.1001 14.42L45.1181 20.062ZM39.7621 11.04L35.7841 7.946V14.108L39.7621 11.04ZM63.0561 12.132L54.5801 21.804H54.0081L45.6361 12.132L54.0081 2.486H54.5801L63.0561 12.132ZM58.9481 12.132L54.2941 6.646L49.6661 12.132L54.2941 17.644L58.9481 12.132ZM76.5032 21.622H75.5672L68.1572 11.118V21.388H65.0112V2.746H65.9472L73.3572 12.99V2.98H76.5032V21.622ZM95.8608 12.132L87.3848 21.804H86.8128L78.4408 12.132L86.8128 2.486H87.3848L95.8608 12.132ZM91.7528 12.132L87.0988 6.646L82.4708 12.132L87.0988 17.644L91.7528 12.132ZM108.516 15.798L99.8319 21.96L97.9339 19.412L103.68 15.512L96.1919 8.414L104.694 2.408L106.618 4.93L101.028 8.726L108.516 15.798Z" fill="#4E6C50"/>
</svg>
