<svg width="208" height="45" viewBox="0 0 208 45" fill="none" xmlns="http://www.w3.org/2000/svg">
<path d="M27.95 38.9L23.2 44.1L7.07805e-08 21.95L22.95 0.349998L27.75 5.5L9.15 21.9L27.95 38.9ZM55.7816 39.9H49.7316V24.6H37.9816V39.9H31.9316V4.5H37.9816V18.85H49.7316V4.5H55.7816V39.9ZM85.7656 37.35L81.2656 41.25L71.2656 30L67.8156 32.65V39.95H61.7656L61.8156 3.5H63.3656L85.1656 19.85L76.1156 26.5L85.7656 37.35ZM75.4656 20L67.8156 14.05V25.9L75.4656 20ZM120.262 22.1L103.962 40.7H102.862L86.7617 22.1L102.862 3.55H103.962L120.262 22.1ZM112.362 22.1L103.412 11.55L94.5117 22.1L103.412 32.7L112.362 22.1ZM146.121 40.35H144.321L130.071 20.15V39.9H124.021V4.05H125.821L140.071 23.75V4.5H146.121V40.35ZM183.348 22.1L167.048 40.7H165.948L149.848 22.1L165.948 3.55H167.048L183.348 22.1ZM175.448 22.1L166.498 11.55L157.598 22.1L166.498 32.7L175.448 22.1ZM207.684 29.15L190.984 41L187.334 36.1L198.384 28.6L183.984 14.95L200.334 3.4L204.034 8.25L193.284 15.55L207.684 29.15Z" fill="#F9F5E2"/>
</svg>
