<?xml version="1.0" encoding="utf-8"?>
<!-- Generator: Adobe Illustrator 24.0.0, SVG Export Plug-In . SVG Version: 6.00 Build 0)  -->
<svg version="1.1" id="Layer_1" xmlns="http://www.w3.org/2000/svg" xmlns:xlink="http://www.w3.org/1999/xlink" x="0px" y="0px"
	 viewBox="0 0 54 54" style="enable-background:new 0 0 54 54;" xml:space="preserve">
<style type="text/css">
	.st0{fill:none;stroke:#A98B55;stroke-miterlimit:10;}
	.st1{fill:#2A2A16;stroke:#2A2A16;stroke-width:0.25;stroke-miterlimit:10;}
	.st2{fill:none;stroke:#2A2A16;stroke-width:0.75;stroke-miterlimit:10;}
</style>
<circle class="st0" cx="27" cy="27" r="24.82"/>
<circle class="st0" cx="27" cy="27.42" r="16.67"/>
<g>
	<g>
		<path class="st1" d="M35.48,10.64l0.09-0.16c0.5,0.22,0.56,0.22,0.84-0.27l1.3-2.29c0.28-0.5,0.25-0.55-0.2-0.86l0.09-0.16
			l1.55,0.88l-0.09,0.16c-0.51-0.22-0.57-0.22-0.85,0.27l-1.3,2.29c-0.28,0.5-0.25,0.54,0.2,0.86l-0.09,0.16L35.48,10.64z"/>
		<path class="st1" d="M41.5,15.45l0.15-0.11c0.37,0.4,0.43,0.43,0.88,0.09l2.1-1.57c0.46-0.34,0.45-0.4,0.17-0.87l0.15-0.11
			L46,14.29l-0.15,0.11c-0.38-0.4-0.43-0.43-0.88-0.09l-2.1,1.58c-0.46,0.34-0.44,0.4-0.16,0.87l-0.15,0.11L41.5,15.45z"/>
		<path class="st1" d="M42.66,17.02l0.16-0.1c0.33,0.44,0.38,0.47,0.86,0.18l2.25-1.35c0.49-0.29,0.48-0.35,0.26-0.85l0.16-0.1
			l0.91,1.52l-0.16,0.1c-0.33-0.44-0.38-0.47-0.87-0.18l-2.25,1.35c-0.49,0.29-0.48,0.35-0.25,0.85l-0.16,0.1L42.66,17.02z"/>
		<path class="st1" d="M45.52,24.18l0.18-0.02c0.13,0.53,0.16,0.58,0.72,0.51l2.61-0.33c0.57-0.07,0.58-0.13,0.58-0.67l0.18-0.02
			l0.22,1.76l-0.18,0.02c-0.13-0.54-0.16-0.59-0.73-0.52l-2.61,0.33c-0.57,0.07-0.58,0.13-0.57,0.68l-0.18,0.02L45.52,24.18z"/>
		<path class="st1" d="M45.75,26.11l0.19,0c0.07,0.54,0.1,0.59,0.66,0.58l2.63-0.06c0.57-0.01,0.59-0.07,0.64-0.61l0.19,0l0.04,1.77
			l-0.19,0c-0.07-0.55-0.1-0.6-0.67-0.59l-2.63,0.06c-0.57,0.01-0.59,0.07-0.63,0.62l-0.19,0L45.75,26.11z"/>
		<path class="st1" d="M45.78,28.04l0.19,0.01c0.02,0.55,0.04,0.6,0.6,0.65l2.62,0.21c0.57,0.04,0.6-0.01,0.7-0.54l0.19,0.01
			l-0.14,1.77l-0.18-0.01c-0.02-0.55-0.04-0.61-0.61-0.65l-2.62-0.21c-0.57-0.04-0.59,0.01-0.7,0.55l-0.18-0.01L45.78,28.04z"/>
		<path class="st1" d="M44.43,34.47l0.17,0.08c-0.17,0.52-0.17,0.58,0.34,0.81l2.39,1.1c0.52,0.24,0.56,0.2,0.84-0.27l0.17,0.08
			l-0.75,1.61l-0.17-0.08c0.18-0.52,0.17-0.58-0.34-0.82l-2.39-1.1c-0.52-0.24-0.56-0.2-0.84,0.28l-0.17-0.08L44.43,34.47z"/>
		<path class="st1" d="M44.9,41.88c0.19-0.4,0.21-0.53-0.16-1.06c-0.27-0.39-1.62-2.37-2.13-3.09l0.12-0.18
			c1.11,0.26,2.71,0.63,3.74,0.85c0.51,0.11,0.63,0.06,0.88-0.26l0.15,0.1l-0.92,1.41l-0.16-0.1c0.22-0.44,0.17-0.5-0.08-0.56
			c-0.5-0.13-1.86-0.45-3.01-0.7c0.52,0.76,1.18,1.72,1.71,2.44c0.24,0.33,0.33,0.3,0.69-0.12l0.16,0.1l-0.84,1.27L44.9,41.88z"/>
		<path class="st1" d="M37.04,48.13c0.35-0.28,0.41-0.39,0.3-1.03c-0.08-0.47-0.46-2.84-0.62-3.71l0.19-0.12
			c0.89,0.7,2.19,1.73,3.03,2.36c0.42,0.32,0.55,0.32,0.91,0.14l0.1,0.16l-1.43,0.88l-0.1-0.16c0.39-0.3,0.37-0.38,0.16-0.54
			c-0.39-0.33-1.5-1.2-2.43-1.91c0.15,0.91,0.34,2.06,0.52,2.94c0.08,0.4,0.18,0.41,0.67,0.18l0.1,0.16l-1.3,0.8L37.04,48.13z"/>
		<path class="st1" d="M27.28,50.42c0.43-0.11,0.54-0.18,0.71-0.8c0.13-0.45,0.79-2.76,1.02-3.61l0.22-0.02
			c0.51,1.02,1.24,2.49,1.73,3.42c0.24,0.47,0.36,0.52,0.76,0.51l0.02,0.18l-1.67,0.19l-0.02-0.18c0.48-0.11,0.5-0.19,0.38-0.42
			c-0.22-0.46-0.84-1.72-1.38-2.76c-0.25,0.89-0.57,2.01-0.79,2.87c-0.1,0.4-0.02,0.45,0.53,0.45l0.02,0.18L27.3,50.6L27.28,50.42z"
			/>
		<path class="st1" d="M27.22,46.21l-0.01,0.19c-0.55,0.04-0.6,0.07-0.62,0.63l-0.09,2.63c-0.02,0.57,0.03,0.6,0.57,0.68l-0.01,0.19
			l-1.77-0.06l0.01-0.18c0.55-0.04,0.61-0.07,0.63-0.63L26.02,47c0.02-0.57-0.03-0.59-0.58-0.67l0.01-0.19L27.22,46.21z"/>
		<path class="st1" d="M16.6,47.94c0.44,0.1,0.56,0.09,1-0.38c0.33-0.34,1.98-2.08,2.58-2.73l0.2,0.08
			c-0.02,1.14-0.05,2.79-0.05,3.84c0,0.52,0.08,0.63,0.44,0.81l-0.07,0.17l-1.57-0.61l0.07-0.17c0.48,0.13,0.53,0.06,0.53-0.2
			c0.02-0.51,0.05-1.92,0.05-3.09c-0.64,0.67-1.44,1.52-2.03,2.19c-0.27,0.31-0.22,0.39,0.26,0.65l-0.07,0.17l-1.42-0.55L16.6,47.94
			z"/>
		<path class="st1" d="M18.5,44.18l-0.09,0.16c-0.5-0.22-0.56-0.22-0.84,0.27l-1.3,2.28c-0.28,0.5-0.25,0.54,0.19,0.87l-0.09,0.16
			l-1.54-0.88l0.09-0.16c0.51,0.22,0.57,0.22,0.85-0.27l1.3-2.28c0.28-0.49,0.25-0.54-0.2-0.86l0.09-0.16L18.5,44.18z"/>
		<path class="st1" d="M16.8,43.21l-0.11,0.15c-0.48-0.27-0.53-0.28-0.86,0.18l-1.53,2.14c-0.33,0.46-0.3,0.52,0.1,0.88l-0.11,0.15
			l-1.44-1.03l0.11-0.15c0.48,0.27,0.54,0.28,0.87-0.18l1.53-2.14c0.33-0.46,0.3-0.51-0.11-0.88l0.11-0.15L16.8,43.21z"/>
		<path class="st1" d="M7.74,40.01c0.33,0.31,0.44,0.36,1.06,0.17c0.45-0.14,2.76-0.82,3.6-1.08l0.14,0.17
			c-0.58,0.97-1.43,2.39-1.96,3.3c-0.27,0.45-0.25,0.58-0.02,0.92l-0.14,0.12L9.35,42.3l0.14-0.12c0.35,0.35,0.43,0.32,0.56,0.09
			c0.27-0.43,0.99-1.64,1.59-2.66c-0.89,0.26-2,0.6-2.85,0.89c-0.39,0.13-0.39,0.23-0.1,0.69l-0.14,0.12L7.6,40.13L7.74,40.01z"/>
		<path class="st1" d="M11.26,37.69l-0.16,0.09c-0.33-0.44-0.38-0.47-0.86-0.18l-2.27,1.33c-0.49,0.29-0.49,0.35-0.26,0.85
			l-0.16,0.09l-0.9-1.53l0.16-0.09c0.33,0.44,0.38,0.48,0.87,0.19l2.27-1.33c0.49-0.29,0.48-0.34,0.25-0.85l0.16-0.09L11.26,37.69z"
			/>
		<path class="st1" d="M10.27,36l-0.17,0.08c-0.28-0.47-0.33-0.51-0.84-0.27l-2.39,1.09c-0.52,0.24-0.52,0.29-0.35,0.81l-0.17,0.08
			l-0.74-1.62l0.17-0.08c0.28,0.48,0.33,0.51,0.85,0.28l2.39-1.09c0.52-0.24,0.51-0.29,0.34-0.82l0.17-0.08L10.27,36z"/>
		<path class="st1" d="M9.49,34.25l-0.18,0.06c-0.23-0.5-0.27-0.54-0.8-0.36l-2.49,0.84c-0.54,0.18-0.55,0.24-0.43,0.77l-0.18,0.06
			l-0.56-1.68l0.18-0.06c0.23,0.5,0.27,0.54,0.81,0.36l2.49-0.84c0.54-0.18,0.54-0.24,0.42-0.78l0.18-0.06L9.49,34.25z"/>
		<path class="st1" d="M8.4,30.13l-0.18,0.02c-0.11-0.54-0.14-0.58-0.7-0.53l-2.62,0.25c-0.57,0.05-0.59,0.11-0.59,0.66l-0.18,0.02
			l-0.17-1.77l0.18-0.02c0.11,0.54,0.14,0.59,0.71,0.54l2.62-0.25c0.57-0.05,0.58-0.11,0.59-0.66l0.18-0.02L8.4,30.13z"/>
		<path class="st1" d="M8.26,26.16l-0.19-0.01c-0.03-0.41-0.09-0.46-0.32-0.35c-0.27,0.14-0.77,0.41-1.44,0.79
			c0.47,0.33,0.91,0.64,1.29,0.88c0.27,0.16,0.35,0.11,0.42-0.33l0.19,0.01l-0.07,1.54L7.96,28.7c-0.02-0.4-0.11-0.59-0.35-0.79
			c-0.31-0.26-0.68-0.54-1.54-1.16c-0.57,0.32-1.05,0.6-1.42,0.8c-0.46,0.27-0.55,0.35-0.62,0.83l-0.19-0.01l0.07-1.65l0.19,0.01
			c0.02,0.41,0.09,0.43,0.28,0.33c0.38-0.2,0.77-0.42,1.24-0.7c-0.39-0.28-0.75-0.53-1.05-0.72c-0.28-0.17-0.36-0.13-0.43,0.31
			l-0.19-0.01l0.07-1.51l0.19,0.01c0.04,0.5,0.09,0.62,0.48,0.92c0.3,0.23,0.49,0.37,1.16,0.86c0.58-0.33,1.14-0.65,1.64-0.94
			c0.52-0.3,0.6-0.43,0.66-0.9l0.19,0.01L8.26,26.16z"/>
		<path class="st1" d="M10.45,18.53l-0.17-0.08c0.15-0.39,0.1-0.45-0.14-0.45c-0.3,0.02-0.88,0.05-1.64,0.12
			c0.29,0.5,0.57,0.96,0.81,1.34c0.18,0.26,0.27,0.25,0.52-0.12L10,19.42L9.3,20.8l-0.17-0.08c0.15-0.37,0.14-0.58,0.01-0.87
			c-0.17-0.36-0.39-0.77-0.92-1.69c-0.65,0.05-1.21,0.11-1.62,0.14c-0.52,0.05-0.64,0.09-0.91,0.5l-0.17-0.08l0.75-1.47l0.17,0.08
			c-0.15,0.38-0.09,0.43,0.12,0.42c0.43-0.02,0.88-0.06,1.41-0.12c-0.24-0.41-0.47-0.79-0.66-1.09c-0.18-0.27-0.27-0.27-0.52,0.1
			l-0.17-0.08l0.69-1.35l0.17,0.08c-0.17,0.47-0.17,0.6,0.06,1.04c0.18,0.34,0.29,0.54,0.7,1.26c0.66-0.06,1.31-0.12,1.88-0.17
			c0.59-0.05,0.72-0.14,0.98-0.54l0.17,0.08L10.45,18.53z"/>
		<path class="st1" d="M15.61,12.48l-0.12-0.15c0.29-0.29,0.28-0.37,0.05-0.47c-0.28-0.11-0.82-0.31-1.54-0.56
			c0.06,0.57,0.12,1.11,0.19,1.55c0.05,0.31,0.14,0.34,0.52,0.1l0.12,0.15l-1.21,0.96l-0.12-0.15c0.29-0.28,0.37-0.47,0.37-0.78
			c-0.01-0.4-0.04-0.87-0.14-1.92c-0.62-0.22-1.14-0.4-1.53-0.54c-0.5-0.17-0.62-0.18-1.03,0.08l-0.12-0.14l1.29-1.03l0.12,0.15
			c-0.3,0.29-0.26,0.35-0.07,0.43c0.4,0.16,0.83,0.3,1.34,0.47c-0.05-0.47-0.1-0.92-0.15-1.26c-0.05-0.32-0.14-0.35-0.51-0.12
			L12.95,9.1l1.18-0.94l0.12,0.15c-0.35,0.36-0.41,0.48-0.38,0.97c0.02,0.38,0.04,0.61,0.11,1.44c0.63,0.22,1.24,0.43,1.78,0.62
			c0.56,0.19,0.71,0.17,1.11-0.09l0.12,0.14L15.61,12.48z"/>
		<path class="st1" d="M16.72,11.68l-0.09-0.16c0.44-0.33,0.47-0.38,0.19-0.86l-1.33-2.27c-0.29-0.49-0.35-0.49-0.85-0.26
			l-0.09-0.16l1.53-0.9l0.09,0.16c-0.44,0.33-0.48,0.38-0.19,0.87l1.33,2.27c0.29,0.49,0.34,0.48,0.85,0.25l0.09,0.16L16.72,11.68z"
			/>
		<path class="st1" d="M24.72,8.77l-0.03-0.18c0.4-0.1,0.43-0.18,0.28-0.38c-0.19-0.23-0.55-0.68-1.05-1.27
			c-0.24,0.52-0.46,1.02-0.62,1.44c-0.11,0.3-0.05,0.36,0.4,0.35l0.03,0.18L22.2,9.14l-0.03-0.18c0.39-0.1,0.56-0.22,0.71-0.49
			c0.2-0.35,0.4-0.77,0.85-1.73c-0.42-0.5-0.78-0.93-1.05-1.24c-0.35-0.4-0.44-0.47-0.93-0.46l-0.03-0.18l1.63-0.24l0.03,0.18
			c-0.4,0.1-0.4,0.17-0.27,0.33c0.26,0.34,0.56,0.68,0.91,1.09c0.2-0.43,0.38-0.84,0.51-1.17c0.12-0.31,0.06-0.38-0.38-0.37
			L24.13,4.5l1.5-0.22l0.03,0.18c-0.48,0.14-0.59,0.21-0.82,0.65c-0.17,0.34-0.28,0.55-0.63,1.3c0.44,0.51,0.85,1,1.23,1.44
			c0.39,0.45,0.53,0.51,1.01,0.48l0.03,0.18L24.72,8.77z"/>
		<path class="st1" d="M26.08,8.66l0-0.19c0.54-0.07,0.59-0.1,0.59-0.66l-0.04-2.63c-0.01-0.57-0.06-0.6-0.61-0.65l0-0.19l1.77-0.03
			l0,0.19c-0.55,0.07-0.6,0.1-0.59,0.67l0.04,2.63c0.01,0.57,0.06,0.59,0.61,0.64l0,0.19L26.08,8.66z"/>
		<path class="st1" d="M28.01,8.65l0.02-0.18c0.55-0.01,0.6-0.03,0.66-0.59l0.26-2.62c0.06-0.57,0.01-0.6-0.53-0.71l0.02-0.18
			l1.77,0.18l-0.02,0.18c-0.55,0-0.61,0.03-0.67,0.59l-0.26,2.62C29.2,8.5,29.25,8.53,29.8,8.64l-0.02,0.18L28.01,8.65z"/>
	</g>
</g>
<g>
	<path class="st2" d="M35.78,35.64c0.1-0.85-1.11-1.86-2.94-2.88c-4.1-2.28-11.33-4.63-13.96-5.35c-1.34-0.36-2.21-2.59-2.24-4.97
		c-0.04-3.5,2.86-5.15,5.27-5.72c-2.33,3.32,2.25,6.74,7.22,9.88c-0.11-2.81,0.58-4.88,1.78-5.87v1.3c2.85,0.57,4.75,1.56,4.08,3.73
		c-0.79-0.71-1.7-0.95-2.79-0.43c1.65,1.82,2.46,3.52,2.18,5.06c1.21,1.11,2.2,2.33,2.79,3.69c1.22,0.2,2.07,0.61,2.04,1.56H35.78z"
		/>
	<path class="st2" d="M24.39,32.18c2.03,2.43,4.89,2.47,8.44,0.59"/>
	<path class="st2" d="M25.04,31.23c-1.99,1.9-3.92,3.13-5.68,2.68l-0.38,0.37c0.36,0.11,0.58,0.29,0.7,0.54v0.86h-3.2L17.8,32
		c2.36,0.07,4.08-1,4.15-2.86c-2.17,1.87-3.49,1.81-4.4,0.99c-0.25-1.31-0.54-2.56-1.47-2.72c-1.32-1.22-2.67-1.53-4.05-0.37
		c0.74,1.4,2.12,1.58,4.05,0.37"/>
</g>
</svg>
