<?xml version="1.0" encoding="utf-8"?>
<!-- Generator: Adobe Illustrator 24.0.0, SVG Export Plug-In . SVG Version: 6.00 Build 0)  -->
<svg version="1.1" id="Layer_1" xmlns="http://www.w3.org/2000/svg" xmlns:xlink="http://www.w3.org/1999/xlink" x="0px" y="0px"
	 viewBox="0 0 214 214" style="enable-background:new 0 0 214 214;" xml:space="preserve">
<style type="text/css">
	.st0{fill:none;stroke:#A98B55;stroke-width:4;stroke-miterlimit:10;}
	.st1{fill:none;stroke:#A98B55;stroke-width:3;stroke-miterlimit:10;}
	.st2{fill:#2A2A16;stroke:#2A2A16;stroke-width:0.25;stroke-miterlimit:10;}
</style>
<g>
	<circle class="st0" cx="106.99" cy="104.74" r="103.47"/>
</g>
<circle class="st1" cx="106.99" cy="106.47" r="69.48"/>
<g>
	<g>
		<path class="st2" d="M142.28,35.63l0.38-0.67c2.09,0.9,2.34,0.91,3.5-1.13l5.4-9.54c1.17-2.07,1.03-2.27-0.82-3.6l0.38-0.67
			l6.44,3.64l-0.38,0.67c-2.12-0.91-2.36-0.92-3.53,1.14l-5.4,9.54c-1.17,2.07-1.02,2.25,0.86,3.59l-0.38,0.67L142.28,35.63z"/>
		<path class="st2" d="M167.29,55.58l0.62-0.47c1.56,1.66,1.78,1.77,3.66,0.35l8.75-6.6c1.9-1.43,1.85-1.67,0.68-3.63l0.62-0.47
			l4.46,5.9l-0.62,0.47c-1.58-1.68-1.8-1.79-3.7-0.36l-8.75,6.6c-1.9,1.43-1.83,1.66-0.65,3.63l-0.62,0.47L167.29,55.58z"/>
		<path class="st2" d="M172.11,62.02l0.66-0.4c1.38,1.81,1.59,1.94,3.6,0.73l9.38-5.67c2.03-1.23,2.01-1.47,1.05-3.54l0.66-0.4
			l3.83,6.33l-0.66,0.4c-1.4-1.83-1.61-1.96-3.64-0.74l-9.38,5.67c-2.03,1.23-1.99,1.46-1.01,3.55l-0.66,0.4L172.11,62.02z"/>
		<path class="st2" d="M184.11,91.68l0.77-0.1c0.54,2.21,0.68,2.42,3.01,2.11l10.87-1.42c2.35-0.31,2.43-0.54,2.39-2.82l0.77-0.1
			l0.96,7.34l-0.77,0.1c-0.54-2.24-0.68-2.44-3.04-2.14l-10.87,1.42c-2.35,0.31-2.41,0.54-2.36,2.84l-0.77,0.1L184.11,91.68z"/>
		<path class="st2" d="M185.12,99.68l0.77-0.02c0.31,2.26,0.43,2.47,2.78,2.41l10.96-0.31c2.37-0.07,2.48-0.29,2.66-2.56l0.77-0.02
			l0.21,7.4l-0.77,0.02c-0.31-2.28-0.43-2.5-2.8-2.43l-10.96,0.31c-2.37,0.07-2.45,0.29-2.63,2.59l-0.77,0.02L185.12,99.68z"/>
		<path class="st2" d="M185.31,107.73l0.77,0.06c0.08,2.28,0.18,2.5,2.52,2.68l10.93,0.8c2.37,0.17,2.49-0.04,2.91-2.28l0.77,0.06
			l-0.54,7.38l-0.77-0.06c-0.08-2.3-0.17-2.53-2.54-2.71l-10.93-0.8c-2.37-0.17-2.47,0.04-2.88,2.31l-0.77-0.06L185.31,107.73z"/>
		<path class="st2" d="M179.87,134.43l0.71,0.32c-0.71,2.17-0.7,2.41,1.44,3.38l9.99,4.51c2.16,0.98,2.36,0.82,3.51-1.14l0.71,0.32
			l-3.05,6.74l-0.7-0.32c0.72-2.19,0.71-2.44-1.46-3.42l-9.99-4.51c-2.16-0.98-2.33-0.81-3.5,1.18l-0.71-0.32L179.87,134.43z"/>
		<path class="st2" d="M182.14,165.2c0.79-1.69,0.84-2.22-0.72-4.4c-1.13-1.61-6.85-9.82-9-12.81l0.49-0.77
			c4.62,1.03,11.34,2.53,15.63,3.42c2.14,0.46,2.62,0.21,3.67-1.12l0.65,0.42l-3.79,5.9l-0.65-0.42c0.92-1.84,0.7-2.11-0.37-2.34
			c-2.07-0.51-7.78-1.79-12.58-2.8c2.2,3.16,5,7.13,7.23,10.1c1.02,1.38,1.41,1.23,2.86-0.52l0.65,0.42l-3.44,5.34L182.14,165.2z"/>
		<path class="st2" d="M149.87,191.42c1.43-1.2,1.69-1.66,1.21-4.29c-0.34-1.94-2.07-11.79-2.75-15.41l0.77-0.49
			c3.75,2.89,9.21,7.08,12.73,9.69c1.75,1.31,2.29,1.3,3.8,0.54l0.41,0.65l-5.93,3.75l-0.41-0.65c1.61-1.28,1.52-1.62,0.65-2.27
			c-1.66-1.33-6.3-4.9-10.22-7.84c0.67,3.79,1.53,8.57,2.29,12.2c0.34,1.68,0.76,1.71,2.82,0.73l0.41,0.65l-5.37,3.39L149.87,191.42
			z"/>
		<path class="st2" d="M109.48,201.48c1.8-0.48,2.24-0.78,2.92-3.37c0.51-1.9,3.14-11.55,4.06-15.11l0.9-0.11
			c2.17,4.21,5.33,10.32,7.4,14.18c1.02,1.93,1.52,2.15,3.21,2.1l0.1,0.77l-6.96,0.87l-0.1-0.77c2-0.47,2.07-0.82,1.56-1.78
			c-0.94-1.91-3.62-7.11-5.91-11.44c-1.01,3.72-2.26,8.41-3.11,12.02c-0.4,1.66-0.04,1.87,2.24,1.86l0.1,0.77l-6.3,0.79
			L109.48,201.48z"/>
		<path class="st2" d="M109,183.93l-0.02,0.77c-2.27,0.2-2.49,0.31-2.54,2.65l-0.23,10.96c-0.05,2.37,0.17,2.49,2.43,2.79
			l-0.02,0.77l-7.4-0.16l0.02-0.77c2.3-0.2,2.52-0.31,2.57-2.68l0.23-10.96c0.05-2.37-0.17-2.46-2.46-2.76l0.02-0.77L109,183.93z"/>
		<path class="st2" d="M65.02,191.87c1.82,0.41,2.35,0.34,4.14-1.65c1.33-1.45,8.11-8.81,10.56-11.56l0.85,0.31
			c-0.01,4.74-0.02,11.62,0.05,16c0.02,2.18,0.36,2.61,1.89,3.34l-0.27,0.73l-6.58-2.43l0.27-0.73c1.99,0.5,2.21,0.23,2.2-0.87
			c0.05-2.13,0.06-7.98,0.01-12.89c-2.61,2.84-5.87,6.43-8.29,9.24c-1.12,1.29-0.9,1.64,1.13,2.68l-0.27,0.72l-5.96-2.2
			L65.02,191.87z"/>
		<path class="st2" d="M72.69,176.06l-0.37,0.68c-2.1-0.87-2.35-0.88-3.48,1.18l-5.26,9.61c-1.14,2.08-1,2.29,0.87,3.59l-0.37,0.68
			l-6.49-3.55l0.37-0.68c2.13,0.88,2.38,0.89,3.52-1.19l5.26-9.61c1.14-2.08,0.99-2.26-0.9-3.58l0.37-0.68L72.69,176.06z"/>
		<path class="st2" d="M65.64,172.16l-0.44,0.64c-2-1.08-2.25-1.11-3.58,0.82l-6.22,9.02c-1.35,1.95-1.23,2.17,0.49,3.66l-0.44,0.64
			l-6.09-4.2l0.44-0.64c2.03,1.1,2.27,1.13,3.62-0.82l6.22-9.02c1.35-1.95,1.21-2.15-0.53-3.65l0.44-0.64L65.64,172.16z"/>
		<path class="st2" d="M27.73,159.61c1.38,1.26,1.87,1.46,4.41,0.62c1.88-0.6,11.41-3.63,14.9-4.79l0.59,0.7
			c-2.36,4.11-5.78,10.08-7.9,13.91c-1.07,1.91-0.98,2.44-0.02,3.84l-0.59,0.5l-4.51-5.37l0.59-0.5c1.48,1.42,1.81,1.29,2.34,0.34
			c1.1-1.82,4.01-6.9,6.41-11.18c-3.67,1.17-8.29,2.67-11.79,3.91c-1.62,0.56-1.59,0.98-0.35,2.89l-0.59,0.5l-4.08-4.86
			L27.73,159.61z"/>
		<path class="st2" d="M42.22,149.7l-0.66,0.41c-1.4-1.8-1.61-1.93-3.61-0.7l-9.33,5.74c-2.02,1.24-2,1.49-1.03,3.55l-0.66,0.41
			l-3.88-6.3l0.66-0.41c1.41,1.82,1.62,1.95,3.64,0.71l9.33-5.74c2.02-1.24,1.98-1.48,0.99-3.56l0.66-0.4L42.22,149.7z"/>
		<path class="st2" d="M38.02,142.8l-0.7,0.33c-1.2-1.93-1.4-2.08-3.52-1.07l-9.88,4.75c-2.14,1.03-2.14,1.28-1.39,3.42l-0.7,0.33
			l-3.21-6.67l0.7-0.33c1.22,1.96,1.41,2.11,3.55,1.08l9.88-4.75c2.14-1.03,2.12-1.26,1.35-3.44l0.7-0.33L38.02,142.8z"/>
		<path class="st2" d="M34.56,135.53l-0.73,0.26c-1-2.05-1.18-2.22-3.39-1.42l-10.32,3.71c-2.23,0.8-2.26,1.05-1.73,3.26l-0.73,0.26
			l-2.5-6.96l0.73-0.26c1.01,2.07,1.19,2.24,3.42,1.44l10.32-3.71c2.23-0.8,2.24-1.04,1.7-3.28l0.73-0.26L34.56,135.53z"/>
		<path class="st2" d="M29.7,118.53l-0.77,0.09c-0.51-2.22-0.65-2.43-2.98-2.15l-10.89,1.28c-2.36,0.28-2.44,0.51-2.42,2.79
			l-0.77,0.09l-0.87-7.35l0.77-0.09c0.52,2.25,0.65,2.45,3.01,2.17l10.89-1.28c2.36-0.28,2.41-0.51,2.39-2.81l0.77-0.09L29.7,118.53
			z"/>
		<path class="st2" d="M28.79,102.21l-0.77-0.02c-0.16-1.71-0.43-1.89-1.35-1.41c-1.09,0.61-3.19,1.78-5.93,3.43
			c1.99,1.34,3.87,2.6,5.47,3.54c1.15,0.66,1.45,0.45,1.71-1.4l0.77,0.02l-0.14,6.43l-0.77-0.02c-0.13-1.66-0.53-2.44-1.53-3.26
			c-1.3-1.05-2.88-2.19-6.53-4.67c-2.35,1.39-4.34,2.59-5.82,3.47c-1.88,1.15-2.24,1.5-2.51,3.51l-0.77-0.02l0.15-6.87l0.77,0.02
			c0.13,1.72,0.43,1.78,1.19,1.35c1.56-0.85,3.19-1.84,5.09-3.01c-1.63-1.11-3.19-2.14-4.44-2.88c-1.17-0.69-1.51-0.5-1.77,1.31
			l-0.77-0.02l0.14-6.29l0.77,0.02c0.23,2.08,0.44,2.58,2.1,3.8c1.28,0.94,2.07,1.51,4.9,3.47c2.38-1.44,4.7-2.8,6.74-4.05
			c2.13-1.28,2.44-1.83,2.68-3.81l0.77,0.02L28.79,102.21z"/>
		<path class="st2" d="M37.1,70.31l-0.7-0.33c0.57-1.63,0.39-1.9-0.65-1.84c-1.25,0.11-3.64,0.31-6.82,0.68
			c1.26,2.04,2.45,3.96,3.53,5.49c0.77,1.07,1.14,1.01,2.14-0.57l0.7,0.33l-2.78,5.8l-0.7-0.33c0.57-1.57,0.53-2.44-0.05-3.61
			c-0.75-1.49-1.72-3.18-4.02-6.95c-2.71,0.29-5.02,0.57-6.73,0.76c-2.18,0.27-2.66,0.44-3.73,2.16l-0.7-0.33l2.97-6.2l0.7,0.33
			c-0.59,1.62-0.34,1.8,0.52,1.72c1.78-0.13,3.66-0.36,5.88-0.64c-1.03-1.69-2.02-3.26-2.85-4.46c-0.78-1.11-1.17-1.08-2.15,0.47
			l-0.7-0.33l2.72-5.68l0.7,0.33c-0.65,1.99-0.66,2.53,0.34,4.33c0.78,1.38,1.26,2.23,3.03,5.19c2.76-0.33,5.44-0.61,7.81-0.91
			c2.47-0.29,2.98-0.66,4.01-2.36l0.7,0.33L37.1,70.31z"/>
		<path class="st2" d="M57.84,44.67l-0.5-0.59c1.18-1.25,1.13-1.57,0.16-1.95c-1.18-0.41-3.44-1.21-6.5-2.18
			c0.31,2.38,0.61,4.62,0.96,6.45c0.26,1.3,0.63,1.39,2.18,0.36l0.5,0.59l-4.92,4.15l-0.5-0.59c1.16-1.2,1.48-2.01,1.44-3.31
			c-0.07-1.67-0.26-3.61-0.81-7.98c-2.59-0.85-4.81-1.54-6.45-2.07c-2.1-0.65-2.61-0.69-4.29,0.44l-0.5-0.59l5.25-4.43l0.5,0.59
			c-1.2,1.23-1.05,1.5-0.23,1.78c1.67,0.61,3.49,1.18,5.63,1.83c-0.25-1.96-0.5-3.8-0.77-5.24c-0.26-1.33-0.62-1.46-2.16-0.46
			l-0.5-0.59l4.81-4.06l0.5,0.59c-1.4,1.55-1.64,2.04-1.46,4.09c0.14,1.58,0.23,2.55,0.63,5.97c2.65,0.83,5.21,1.68,7.5,2.38
			c2.37,0.75,2.98,0.63,4.63-0.51l0.5,0.59L57.84,44.67z"/>
		<path class="st2" d="M62.31,41.24l-0.41-0.65c1.78-1.41,1.91-1.63,0.67-3.61l-5.83-9.28c-1.26-2.01-1.51-1.99-3.56-0.99
			l-0.41-0.65l6.26-3.93l0.41,0.65c-1.81,1.43-1.94,1.64-0.67,3.65l5.83,9.28c1.26,2.01,1.49,1.96,3.57,0.96l0.41,0.65L62.31,41.24z
			"/>
		<path class="st2" d="M95.16,28.21l-0.13-0.76c1.65-0.48,1.77-0.78,1.12-1.6c-0.81-0.95-2.36-2.78-4.51-5.16
			c-0.93,2.21-1.8,4.29-2.42,6.06c-0.43,1.25-0.16,1.51,1.7,1.41l0.13,0.76l-6.34,1.1l-0.13-0.76c1.6-0.45,2.29-0.99,2.91-2.13
			c0.78-1.48,1.59-3.25,3.33-7.31c-1.81-2.04-3.37-3.76-4.52-5.04c-1.49-1.62-1.9-1.91-3.93-1.78l-0.13-0.76l6.77-1.18l0.13,0.76
			c-1.66,0.46-1.66,0.77-1.1,1.42c1.14,1.37,2.42,2.78,3.94,4.42c0.78-1.82,1.49-3.54,1.98-4.91c0.45-1.28,0.2-1.58-1.63-1.48
			l-0.13-0.76l6.2-1.08l0.13,0.76c-1.99,0.63-2.44,0.93-3.33,2.79c-0.68,1.43-1.08,2.32-2.47,5.47c1.87,2.06,3.65,4.07,5.28,5.84
			c1.67,1.84,2.26,2.04,4.25,1.9l0.13,0.76L95.16,28.21z"/>
		<path class="st2" d="M100.75,27.5l-0.02-0.77c2.25-0.32,2.47-0.44,2.4-2.78l-0.35-10.95c-0.08-2.37-0.3-2.48-2.57-2.65l-0.02-0.77
			l7.39-0.24l0.02,0.77c-2.28,0.32-2.5,0.44-2.42,2.81l0.35,10.95c0.08,2.37,0.3,2.45,2.6,2.62l0.03,0.77L100.75,27.5z"/>
		<path class="st2" d="M108.82,27.28l0.05-0.77c2.28-0.09,2.5-0.19,2.67-2.53l0.76-10.93c0.16-2.37-0.05-2.49-2.29-2.9l0.05-0.77
			l7.38,0.51l-0.05,0.77c-2.3,0.09-2.53,0.18-2.69,2.55l-0.76,10.93c-0.16,2.37,0.05,2.47,2.32,2.87l-0.05,0.77L108.82,27.28z"/>
	</g>
</g>
<g>
	<circle class="st0" cx="106.99" cy="105.6" r="59.76"/>
	<circle class="st1" cx="106.99" cy="106.5" r="35.97"/>
	<g>
		<g>
			<path class="st2" d="M125.95,69.01l0.2-0.36c1.13,0.48,1.26,0.49,1.88-0.61l2.9-5.13c0.63-1.11,0.55-1.22-0.44-1.94l0.21-0.36
				l3.46,1.96l-0.2,0.36c-1.14-0.49-1.27-0.5-1.9,0.61l-2.9,5.13c-0.63,1.11-0.55,1.21,0.46,1.93l-0.21,0.36L125.95,69.01z"/>
			<path class="st2" d="M139.4,79.74l0.33-0.25c0.84,0.89,0.96,0.95,1.96,0.19l4.7-3.54c1.02-0.77,0.99-0.9,0.37-1.95l0.33-0.25
				l2.39,3.17l-0.33,0.25c-0.85-0.9-0.97-0.96-1.98-0.19l-4.7,3.54c-1.02,0.77-0.98,0.89-0.35,1.95l-0.33,0.25L139.4,79.74z"/>
			<path class="st2" d="M142,83.21l0.36-0.21c0.74,0.97,0.85,1.04,1.93,0.39l5.04-3.04c1.09-0.66,1.08-0.79,0.57-1.9l0.36-0.21
				l2.05,3.4l-0.36,0.21c-0.75-0.98-0.86-1.06-1.95-0.4l-5.04,3.04c-1.09,0.66-1.07,0.78-0.55,1.91l-0.36,0.21L142,83.21z"/>
			<path class="st2" d="M148.44,99.19l0.41-0.05c0.29,1.19,0.36,1.3,1.61,1.14l5.84-0.76c1.27-0.16,1.31-0.29,1.29-1.51l0.41-0.05
				l0.51,3.94l-0.41,0.05c-0.29-1.2-0.36-1.31-1.63-1.15l-5.84,0.76c-1.26,0.16-1.29,0.29-1.27,1.53l-0.41,0.05L148.44,99.19z"/>
			<path class="st2" d="M148.97,103.47l0.42-0.01c0.17,1.21,0.23,1.33,1.49,1.3l5.89-0.16c1.28-0.03,1.33-0.15,1.43-1.37l0.42-0.01
				l0.11,3.97l-0.42,0.01c-0.17-1.23-0.23-1.34-1.5-1.31l-5.89,0.16c-1.28,0.03-1.32,0.15-1.42,1.39l-0.42,0.01L148.97,103.47z"/>
			<path class="st2" d="M149.07,107.83l0.41,0.03c0.04,1.22,0.09,1.34,1.35,1.44l5.87,0.44c1.27,0.1,1.34-0.02,1.56-1.22l0.41,0.03
				l-0.3,3.96l-0.41-0.03c-0.04-1.24-0.09-1.36-1.36-1.46l-5.87-0.44c-1.27-0.1-1.32,0.02-1.55,1.24l-0.41-0.03L149.07,107.83z"/>
			<path class="st2" d="M146.11,122.19l0.38,0.17c-0.38,1.16-0.38,1.29,0.77,1.82l5.36,2.44c1.16,0.53,1.26,0.45,1.89-0.61
				l0.38,0.17l-1.65,3.62l-0.38-0.17c0.39-1.18,0.38-1.31-0.78-1.84l-5.36-2.44c-1.16-0.53-1.25-0.44-1.88,0.63l-0.38-0.17
				L146.11,122.19z"/>
			<path class="st2" d="M147.29,138.71c0.43-0.91,0.45-1.19-0.38-2.37c-0.6-0.87-3.66-5.29-4.81-6.89l0.27-0.41
				c2.48,0.56,6.09,1.38,8.39,1.86c1.15,0.25,1.41,0.12,1.97-0.59l0.35,0.23l-2.05,3.16l-0.35-0.23c0.5-0.99,0.38-1.13-0.19-1.26
				c-1.11-0.28-4.18-0.97-6.75-1.52c1.18,1.7,2.68,3.83,3.87,5.43c0.54,0.74,0.75,0.66,1.54-0.28l0.35,0.23l-1.85,2.86
				L147.29,138.71z"/>
			<path class="st2" d="M129.88,152.79c0.77-0.64,0.91-0.89,0.66-2.3c-0.18-1.04-1.09-6.34-1.46-8.28l0.42-0.26
				c2.01,1.56,4.94,3.82,6.82,5.23c0.94,0.71,1.23,0.7,2.04,0.29l0.22,0.35l-3.19,2l-0.22-0.35c0.87-0.68,0.82-0.87,0.35-1.22
				c-0.89-0.72-3.38-2.64-5.48-4.23c0.35,2.04,0.81,4.61,1.21,6.56c0.18,0.9,0.4,0.92,1.51,0.4l0.22,0.35l-2.89,1.81L129.88,152.79z
				"/>
			<path class="st2" d="M108.11,158.13c0.97-0.25,1.21-0.42,1.57-1.8c0.28-1.02,1.71-6.2,2.21-8.11l0.49-0.06
				c1.16,2.27,2.84,5.56,3.94,7.64c0.54,1.04,0.81,1.16,1.72,1.14l0.05,0.41l-3.74,0.45l-0.05-0.41c1.08-0.25,1.11-0.43,0.84-0.95
				c-0.5-1.03-1.93-3.83-3.15-6.16c-0.55,1.99-1.23,4.51-1.7,6.45c-0.22,0.89-0.03,1,1.2,1l0.05,0.41l-3.39,0.41L108.11,158.13z"/>
			<path class="st2" d="M107.89,148.69l-0.01,0.42c-1.22,0.1-1.34,0.16-1.37,1.42l-0.15,5.89c-0.03,1.28,0.08,1.34,1.3,1.5
				l-0.01,0.42l-3.97-0.1l0.01-0.42c1.23-0.1,1.35-0.16,1.39-1.43l0.15-5.89c0.03-1.28-0.08-1.32-1.31-1.49l0.01-0.42L107.89,148.69
				z"/>
			<path class="st2" d="M84.23,152.84c0.98,0.22,1.26,0.19,2.23-0.88c0.72-0.78,4.38-4.71,5.7-6.18l0.46,0.17
				c-0.02,2.54-0.04,6.24-0.02,8.59c0,1.17,0.19,1.4,1,1.8l-0.15,0.39l-3.53-1.32l0.15-0.39c1.07,0.27,1.19,0.13,1.19-0.46
				c0.03-1.14,0.05-4.29,0.04-6.92c-1.41,1.52-3.17,3.44-4.48,4.94c-0.61,0.69-0.49,0.88,0.6,1.44l-0.15,0.39l-3.19-1.2
				L84.23,152.84z"/>
			<path class="st2" d="M88.38,144.37l-0.2,0.36c-1.13-0.47-1.26-0.48-1.87,0.62l-2.85,5.15c-0.62,1.12-0.54,1.22,0.46,1.93
				l-0.2,0.36l-3.48-1.93l0.2-0.36c1.14,0.48,1.27,0.49,1.89-0.63l2.85-5.15c0.62-1.12,0.54-1.21-0.48-1.93l0.2-0.36L88.38,144.37z"
				/>
			<path class="st2" d="M84.58,142.24l-0.24,0.34c-1.07-0.59-1.21-0.61-1.93,0.43l-3.37,4.83c-0.73,1.05-0.67,1.16,0.25,1.97
				l-0.24,0.34l-3.26-2.27l0.24-0.34c1.09,0.59,1.22,0.61,1.95-0.43l3.37-4.83c0.73-1.05,0.66-1.15-0.28-1.96l0.24-0.34
				L84.58,142.24z"/>
			<path class="st2" d="M64.24,135.37c0.74,0.68,1,0.79,2.37,0.35c1.01-0.32,6.14-1.91,8.02-2.52l0.31,0.38
				c-1.28,2.2-3.14,5.39-4.29,7.44c-0.58,1.02-0.53,1.31-0.02,2.06l-0.32,0.26l-2.4-2.9l0.32-0.26c0.79,0.77,0.97,0.7,1.26,0.19
				c0.6-0.98,2.18-3.69,3.48-5.98c-1.97,0.62-4.46,1.4-6.34,2.06c-0.87,0.3-0.86,0.52-0.2,1.55l-0.32,0.26l-2.18-2.63L64.24,135.37z
				"/>
			<path class="st2" d="M72.06,130.1l-0.35,0.22c-0.75-0.97-0.86-1.04-1.94-0.39l-5.03,3.06c-1.09,0.66-1.08,0.79-0.56,1.9
				l-0.35,0.22l-2.06-3.4l0.35-0.22c0.75,0.98,0.87,1.05,1.96,0.39l5.03-3.06c1.09-0.66,1.07-0.79,0.54-1.91l0.35-0.22L72.06,130.1z
				"/>
			<path class="st2" d="M69.81,126.36l-0.38,0.18c-0.64-1.04-0.75-1.13-1.89-0.58l-5.32,2.52c-1.15,0.55-1.16,0.68-0.76,1.84
				l-0.38,0.18l-1.7-3.59l0.38-0.18c0.65,1.06,0.75,1.14,1.91,0.59l5.32-2.52c1.15-0.55,1.14-0.67,0.74-1.84l0.38-0.18L69.81,126.36
				z"/>
			<path class="st2" d="M67.98,122.44l-0.39,0.14c-0.53-1.1-0.63-1.2-1.81-0.78l-5.56,1.96c-1.2,0.42-1.22,0.56-0.94,1.75
				l-0.39,0.14l-1.32-3.75l0.39-0.14c0.54,1.12,0.63,1.21,1.83,0.79l5.55-1.96c1.2-0.42,1.21-0.55,0.92-1.76l0.39-0.14L67.98,122.44
				z"/>
			<path class="st2" d="M65.42,113.27l-0.41,0.05c-0.27-1.19-0.34-1.31-1.59-1.17l-5.85,0.65c-1.27,0.14-1.31,0.26-1.31,1.49
				l-0.41,0.05l-0.44-3.95l0.41-0.04c0.27,1.21,0.34,1.32,1.61,1.18l5.85-0.65c1.27-0.14,1.3-0.26,1.3-1.5l0.41-0.04L65.42,113.27z"
				/>
			<path class="st2" d="M64.99,104.51l-0.42-0.01c-0.08-0.92-0.22-1.02-0.72-0.76c-0.59,0.33-1.72,0.95-3.2,1.83
				c1.06,0.73,2.07,1.41,2.93,1.92c0.61,0.36,0.78,0.24,0.93-0.75l0.42,0.01l-0.1,3.46l-0.42-0.01c-0.06-0.89-0.28-1.31-0.81-1.76
				c-0.7-0.57-1.54-1.19-3.49-2.53c-1.27,0.74-2.34,1.37-3.14,1.84c-1.01,0.61-1.21,0.8-1.36,1.88l-0.42-0.01l0.1-3.69l0.42,0.01
				c0.06,0.92,0.23,0.96,0.63,0.73c0.84-0.45,1.72-0.98,2.75-1.6c-0.87-0.6-1.7-1.16-2.38-1.57c-0.63-0.37-0.81-0.27-0.95,0.7
				l-0.42-0.01l0.09-3.38l0.42,0.01c0.12,1.12,0.23,1.39,1.12,2.05c0.68,0.51,1.11,0.82,2.62,1.88c1.28-0.77,2.54-1.49,3.64-2.15
				c1.15-0.68,1.32-0.97,1.45-2.04l0.42,0.01L64.99,104.51z"/>
			<path class="st2" d="M69.59,87.36l-0.37-0.18c0.31-0.87,0.22-1.02-0.34-0.99c-0.67,0.05-1.96,0.15-3.66,0.34
				c0.67,1.1,1.3,2.14,1.87,2.96c0.41,0.58,0.61,0.54,1.15-0.3l0.37,0.18l-1.52,3.1l-0.37-0.18c0.31-0.84,0.29-1.31-0.01-1.94
				c-0.4-0.81-0.91-1.72-2.13-3.75c-1.46,0.15-2.7,0.28-3.62,0.38c-1.17,0.14-1.43,0.22-2.01,1.15l-0.37-0.18l1.62-3.32l0.37,0.18
				c-0.32,0.86-0.19,0.96,0.27,0.93c0.95-0.06,1.97-0.18,3.16-0.32c-0.54-0.91-1.07-1.76-1.51-2.41c-0.42-0.6-0.62-0.58-1.16,0.24
				l-0.37-0.18l1.49-3.04l0.37,0.18c-0.36,1.06-0.37,1.36,0.17,2.33c0.41,0.75,0.67,1.2,1.6,2.8c1.48-0.17,2.92-0.3,4.2-0.45
				c1.33-0.14,1.6-0.34,2.16-1.25l0.37,0.18L69.59,87.36z"/>
			<path class="st2" d="M80.85,73.66l-0.27-0.32c0.64-0.67,0.61-0.84,0.1-1.04c-0.63-0.23-1.84-0.67-3.48-1.2
				c0.16,1.28,0.31,2.48,0.49,3.47c0.14,0.7,0.33,0.75,1.17,0.2l0.27,0.32l-2.66,2.21l-0.27-0.32c0.63-0.64,0.81-1.07,0.79-1.77
				c-0.03-0.9-0.13-1.94-0.4-4.29c-1.39-0.47-2.58-0.85-3.45-1.14c-1.13-0.36-1.4-0.38-2.31,0.22l-0.27-0.32l2.84-2.36l0.27,0.32
				c-0.65,0.66-0.57,0.8-0.13,0.96c0.9,0.34,1.87,0.65,3.01,1.01c-0.12-1.05-0.25-2.05-0.39-2.82c-0.13-0.72-0.33-0.79-1.16-0.25
				l-0.27-0.32l2.6-2.16l0.27,0.32c-0.76,0.83-0.89,1.09-0.8,2.19c0.07,0.85,0.12,1.37,0.31,3.21c1.42,0.46,2.79,0.92,4.02,1.31
				c1.27,0.41,1.6,0.35,2.49-0.25l0.27,0.32L80.85,73.66z"/>
			<path class="st2" d="M83.29,71.81l-0.22-0.35c0.97-0.75,1.04-0.86,0.37-1.94l-3.09-5.02c-0.67-1.09-0.8-1.07-1.91-0.55
				l-0.22-0.35l3.39-2.09l0.22,0.35c-0.98,0.76-1.05,0.87-0.38,1.96l3.09,5.02c0.67,1.09,0.79,1.06,1.91,0.53l0.22,0.35L83.29,71.81
				z"/>
			<path class="st2" d="M101.02,64.97l-0.07-0.41c0.89-0.25,0.95-0.41,0.61-0.85c-0.43-0.52-1.25-1.51-2.4-2.79
				c-0.51,1.18-0.99,2.3-1.33,3.24c-0.24,0.67-0.09,0.81,0.91,0.77l0.07,0.41l-3.41,0.56l-0.07-0.41c0.86-0.23,1.24-0.52,1.57-1.13
				c0.43-0.79,0.87-1.74,1.83-3.9c-0.96-1.1-1.79-2.04-2.4-2.73c-0.79-0.88-1.01-1.04-2.1-0.98l-0.07-0.41l3.64-0.6l0.07,0.41
				c-0.89,0.24-0.9,0.4-0.6,0.76c0.6,0.74,1.28,1.5,2.09,2.39c0.43-0.97,0.82-1.89,1.09-2.63c0.25-0.69,0.12-0.85-0.87-0.8
				l-0.07-0.41l3.34-0.55l0.07,0.41c-1.07,0.33-1.32,0.49-1.8,1.48c-0.37,0.77-0.59,1.24-1.35,2.93c0.99,1.11,1.94,2.21,2.8,3.16
				c0.88,1,1.2,1.11,2.27,1.04l0.07,0.41L101.02,64.97z"/>
			<path class="st2" d="M104.03,64.61l-0.01-0.42c1.21-0.16,1.33-0.22,1.3-1.48l-0.13-5.89c-0.03-1.28-0.15-1.33-1.37-1.44
				l-0.01-0.42l3.97-0.09l0.01,0.42c-1.23,0.16-1.35,0.22-1.32,1.5l0.13,5.89c0.03,1.28,0.15,1.32,1.38,1.42l0.01,0.42L104.03,64.61
				z"/>
			<path class="st2" d="M108.39,64.53l0.03-0.41c1.22-0.04,1.35-0.09,1.45-1.34l0.47-5.87c0.1-1.27-0.01-1.34-1.21-1.57l0.03-0.41
				l3.96,0.31l-0.03,0.41c-1.24,0.04-1.36,0.09-1.46,1.36l-0.47,5.87c-0.1,1.27,0.01,1.33,1.23,1.56l-0.03,0.41L108.39,64.53z"/>
		</g>
	</g>
</g>
</svg>
