<svg width="149" height="106" viewBox="0 0 149 106" fill="none" xmlns="http://www.w3.org/2000/svg">
<path d="M129.173 103.687C129.725 99.1507 123.236 93.7278 113.405 88.2535C91.4181 76.0198 52.7382 63.4649 38.6027 59.6098C31.445 57.6565 26.7803 45.7441 26.6261 32.9708C26.3948 14.1962 41.9567 5.39365 54.8843 2.32239C42.4065 20.1074 66.9123 38.4193 93.5899 55.2406C93.0116 40.1927 96.6997 29.1156 103.099 23.8212V30.7862C118.366 33.8189 128.53 39.1647 124.932 50.7558C120.704 46.9392 115.834 45.667 109.974 48.4427C118.828 58.2219 123.159 67.32 121.642 75.57C128.132 81.5455 133.439 88.0607 136.6 95.3341C143.128 96.3878 147.69 98.6109 147.523 103.687H129.173Z" stroke="#2A2A16" stroke-width="2.5" stroke-miterlimit="10"/>
<path d="M68.1587 85.1051C79.0173 98.1226 94.3736 98.3539 113.392 88.2406" stroke="#2A2A16" stroke-width="2.5" stroke-miterlimit="10"/>
<path d="M71.6284 80.0292C60.9625 90.2067 50.6436 96.8247 41.2242 94.3703L39.1681 96.3621C41.0957 96.9275 42.2908 97.917 42.9076 99.2535V103.88H25.7523L32.8457 84.1798C45.5034 84.5397 54.6787 78.8212 55.077 68.8621C43.4602 78.8855 36.4053 78.5514 31.4964 74.1822C30.1471 67.1787 28.6051 60.4964 23.6319 59.6226C16.5385 53.1074 9.32936 51.424 1.92749 57.6565C5.89828 65.174 13.2873 66.1249 23.6319 59.6226" stroke="#2A2A16" stroke-width="2.5" stroke-miterlimit="10"/>
</svg>
