<?xml version="1.0" encoding="utf-8"?>
<!-- Generator: Adobe Illustrator 24.0.0, SVG Export Plug-In . SVG Version: 6.00 Build 0)  -->
<svg version="1.1" id="Layer_1" xmlns="http://www.w3.org/2000/svg" xmlns:xlink="http://www.w3.org/1999/xlink" x="0px" y="0px"
	 viewBox="0 0 214 214" style="enable-background:new 0 0 214 214;" xml:space="preserve">
<style type="text/css">
	.st0{fill:none;stroke:#A98B55;stroke-width:4;stroke-miterlimit:10;}
	.st1{fill:none;stroke:#A98B55;stroke-width:3;stroke-miterlimit:10;}
	.st2{fill:#2A2A16;stroke:#2A2A16;stroke-width:0.25;stroke-miterlimit:10;}
</style>
<g>
	<circle class="st0" cx="106.99" cy="106.16" r="103.47"/>
</g>
<circle class="st1" cx="106.99" cy="107.89" r="69.48"/>
<g>
	<g>
		<path class="st2" d="M142.28,37.05l0.38-0.67c2.09,0.9,2.34,0.91,3.5-1.13l5.4-9.54c1.17-2.07,1.03-2.27-0.82-3.6l0.38-0.67
			l6.44,3.64l-0.38,0.67c-2.12-0.91-2.36-0.92-3.53,1.14l-5.4,9.54c-1.17,2.07-1.02,2.25,0.86,3.59l-0.38,0.67L142.28,37.05z"/>
		<path class="st2" d="M167.29,57l0.62-0.47c1.56,1.66,1.78,1.77,3.66,0.35l8.75-6.6c1.9-1.43,1.85-1.67,0.68-3.63l0.62-0.47
			l4.46,5.9l-0.62,0.47c-1.58-1.68-1.8-1.79-3.7-0.36l-8.75,6.6c-1.9,1.43-1.83,1.66-0.65,3.63l-0.62,0.47L167.29,57z"/>
		<path class="st2" d="M172.11,63.44l0.66-0.4c1.38,1.81,1.59,1.94,3.6,0.73l9.38-5.67c2.03-1.23,2.01-1.47,1.05-3.54l0.66-0.4
			l3.83,6.33l-0.66,0.4c-1.4-1.83-1.61-1.96-3.64-0.74l-9.38,5.67c-2.03,1.23-1.99,1.46-1.01,3.55l-0.66,0.4L172.11,63.44z"/>
		<path class="st2" d="M184.11,93.1l0.77-0.1c0.54,2.21,0.68,2.42,3.01,2.11l10.87-1.42c2.35-0.31,2.43-0.54,2.39-2.82l0.77-0.1
			l0.96,7.34l-0.77,0.1c-0.54-2.24-0.68-2.44-3.04-2.14l-10.87,1.42c-2.35,0.31-2.41,0.54-2.36,2.84l-0.77,0.1L184.11,93.1z"/>
		<path class="st2" d="M185.12,101.1l0.77-0.02c0.31,2.26,0.43,2.47,2.78,2.41l10.96-0.31c2.37-0.07,2.48-0.29,2.66-2.56l0.77-0.02
			l0.21,7.4l-0.77,0.02c-0.31-2.28-0.43-2.5-2.8-2.43l-10.96,0.31c-2.37,0.07-2.45,0.29-2.63,2.59l-0.77,0.02L185.12,101.1z"/>
		<path class="st2" d="M185.31,109.15l0.77,0.06c0.08,2.28,0.18,2.5,2.52,2.67l10.93,0.8c2.37,0.17,2.49-0.04,2.91-2.28l0.77,0.06
			l-0.54,7.38l-0.77-0.06c-0.08-2.3-0.17-2.53-2.54-2.71l-10.93-0.8c-2.37-0.17-2.47,0.04-2.88,2.31l-0.77-0.06L185.31,109.15z"/>
		<path class="st2" d="M179.87,135.85l0.71,0.32c-0.71,2.17-0.7,2.41,1.44,3.38l9.99,4.51c2.16,0.98,2.36,0.82,3.51-1.14l0.71,0.32
			l-3.05,6.74l-0.7-0.32c0.72-2.19,0.71-2.44-1.46-3.42l-9.99-4.51c-2.16-0.98-2.33-0.81-3.5,1.18l-0.71-0.32L179.87,135.85z"/>
		<path class="st2" d="M182.14,166.63c0.79-1.69,0.84-2.22-0.72-4.4c-1.13-1.61-6.85-9.82-9-12.81l0.49-0.77
			c4.62,1.03,11.34,2.53,15.63,3.42c2.14,0.46,2.62,0.21,3.67-1.12l0.65,0.42l-3.79,5.9l-0.65-0.42c0.92-1.84,0.7-2.11-0.37-2.34
			c-2.07-0.51-7.78-1.79-12.58-2.8c2.2,3.16,5,7.13,7.23,10.1c1.02,1.38,1.41,1.23,2.86-0.52l0.65,0.42l-3.44,5.34L182.14,166.63z"
			/>
		<path class="st2" d="M149.87,192.84c1.43-1.2,1.69-1.66,1.21-4.29c-0.34-1.94-2.07-11.79-2.75-15.41l0.77-0.49
			c3.75,2.89,9.21,7.08,12.73,9.69c1.75,1.31,2.29,1.3,3.8,0.54l0.41,0.65l-5.93,3.75l-0.41-0.65c1.61-1.28,1.52-1.62,0.65-2.27
			c-1.66-1.33-6.3-4.9-10.22-7.84c0.67,3.79,1.53,8.57,2.29,12.2c0.34,1.68,0.76,1.71,2.82,0.73l0.41,0.65l-5.37,3.39L149.87,192.84
			z"/>
		<path class="st2" d="M109.48,202.9c1.8-0.48,2.24-0.78,2.92-3.37c0.51-1.9,3.14-11.55,4.06-15.11l0.9-0.11
			c2.17,4.21,5.33,10.32,7.4,14.18c1.02,1.93,1.52,2.15,3.21,2.1l0.1,0.77l-6.96,0.87l-0.1-0.77c2-0.47,2.07-0.82,1.56-1.78
			c-0.94-1.91-3.62-7.11-5.91-11.44c-1.01,3.72-2.26,8.41-3.11,12.02c-0.4,1.66-0.04,1.87,2.24,1.86l0.1,0.77l-6.3,0.79
			L109.48,202.9z"/>
		<path class="st2" d="M109,185.35l-0.02,0.77c-2.27,0.2-2.49,0.31-2.54,2.65l-0.23,10.96c-0.05,2.37,0.17,2.49,2.43,2.79
			l-0.02,0.77l-7.4-0.16l0.02-0.77c2.3-0.2,2.52-0.31,2.57-2.68l0.23-10.96c0.05-2.37-0.17-2.46-2.46-2.76l0.02-0.77L109,185.35z"/>
		<path class="st2" d="M65.02,193.29c1.82,0.41,2.35,0.34,4.14-1.65c1.33-1.45,8.11-8.81,10.56-11.56l0.85,0.31
			c-0.01,4.74-0.02,11.62,0.05,16c0.02,2.18,0.36,2.61,1.89,3.34l-0.27,0.73l-6.58-2.43l0.27-0.73c1.99,0.5,2.21,0.23,2.2-0.87
			c0.05-2.13,0.06-7.98,0.01-12.89c-2.61,2.84-5.87,6.43-8.29,9.24c-1.12,1.29-0.9,1.64,1.13,2.68l-0.27,0.72l-5.96-2.2
			L65.02,193.29z"/>
		<path class="st2" d="M72.69,177.49l-0.37,0.68c-2.1-0.87-2.35-0.88-3.48,1.18l-5.26,9.61c-1.14,2.08-1,2.29,0.87,3.59l-0.37,0.68
			l-6.49-3.55l0.37-0.68c2.13,0.88,2.38,0.89,3.52-1.19l5.26-9.61c1.14-2.08,0.99-2.26-0.9-3.58l0.37-0.68L72.69,177.49z"/>
		<path class="st2" d="M65.64,173.58l-0.44,0.64c-2-1.08-2.25-1.11-3.58,0.82l-6.22,9.02c-1.35,1.95-1.23,2.17,0.49,3.66l-0.44,0.64
			l-6.09-4.2l0.44-0.64c2.03,1.1,2.27,1.13,3.62-0.82l6.22-9.02c1.35-1.95,1.21-2.15-0.53-3.65l0.44-0.64L65.64,173.58z"/>
		<path class="st2" d="M27.73,161.04c1.38,1.26,1.87,1.46,4.41,0.62c1.88-0.6,11.41-3.63,14.9-4.79l0.59,0.7
			c-2.36,4.11-5.78,10.08-7.9,13.91c-1.07,1.91-0.98,2.44-0.02,3.84l-0.59,0.5l-4.51-5.37l0.59-0.5c1.48,1.42,1.81,1.29,2.34,0.34
			c1.1-1.82,4.01-6.9,6.41-11.18c-3.67,1.17-8.29,2.67-11.79,3.91c-1.62,0.56-1.59,0.98-0.35,2.89l-0.59,0.5l-4.08-4.86
			L27.73,161.04z"/>
		<path class="st2" d="M42.22,151.12l-0.66,0.41c-1.4-1.8-1.61-1.93-3.61-0.7l-9.33,5.74c-2.02,1.24-2,1.49-1.03,3.55l-0.66,0.41
			l-3.88-6.3l0.66-0.41c1.41,1.82,1.62,1.95,3.64,0.71l9.33-5.74c2.02-1.24,1.98-1.48,0.99-3.56l0.66-0.4L42.22,151.12z"/>
		<path class="st2" d="M38.02,144.22l-0.7,0.33c-1.2-1.93-1.4-2.08-3.52-1.07l-9.88,4.75c-2.14,1.03-2.14,1.28-1.39,3.42l-0.7,0.33
			l-3.21-6.67l0.7-0.33c1.22,1.96,1.41,2.11,3.55,1.08l9.88-4.75c2.14-1.03,2.12-1.26,1.35-3.44l0.7-0.33L38.02,144.22z"/>
		<path class="st2" d="M34.56,136.95l-0.73,0.26c-1-2.05-1.18-2.22-3.39-1.42l-10.32,3.71c-2.23,0.8-2.26,1.05-1.73,3.26l-0.73,0.26
			l-2.5-6.96l0.73-0.26c1.01,2.07,1.19,2.24,3.42,1.44l10.32-3.71c2.23-0.8,2.24-1.04,1.7-3.28l0.73-0.26L34.56,136.95z"/>
		<path class="st2" d="M29.7,119.95l-0.77,0.09c-0.51-2.22-0.65-2.43-2.98-2.15l-10.89,1.28c-2.36,0.28-2.44,0.51-2.42,2.79
			l-0.77,0.09l-0.87-7.35l0.77-0.09c0.52,2.25,0.65,2.45,3.01,2.17l10.89-1.28c2.36-0.28,2.41-0.51,2.39-2.81l0.77-0.09L29.7,119.95
			z"/>
		<path class="st2" d="M28.79,103.64l-0.77-0.02c-0.16-1.71-0.43-1.89-1.35-1.41c-1.09,0.61-3.19,1.78-5.93,3.43
			c1.99,1.34,3.87,2.6,5.47,3.54c1.15,0.66,1.45,0.45,1.71-1.4l0.77,0.02l-0.14,6.43l-0.77-0.02c-0.13-1.66-0.53-2.44-1.53-3.26
			c-1.3-1.05-2.88-2.19-6.53-4.67c-2.35,1.39-4.34,2.59-5.82,3.46c-1.88,1.15-2.24,1.5-2.51,3.51l-0.77-0.02l0.15-6.87l0.77,0.02
			c0.13,1.72,0.43,1.78,1.19,1.35c1.56-0.85,3.19-1.84,5.09-3.01c-1.63-1.11-3.19-2.14-4.44-2.88c-1.17-0.69-1.51-0.5-1.77,1.31
			l-0.77-0.02l0.14-6.29l0.77,0.02c0.23,2.08,0.44,2.58,2.1,3.8c1.28,0.94,2.07,1.51,4.9,3.47c2.38-1.44,4.7-2.8,6.74-4.05
			c2.13-1.28,2.44-1.83,2.68-3.81l0.77,0.02L28.79,103.64z"/>
		<path class="st2" d="M37.1,71.74l-0.7-0.33c0.57-1.63,0.39-1.9-0.65-1.84c-1.25,0.11-3.64,0.31-6.82,0.68
			c1.26,2.04,2.45,3.96,3.53,5.49c0.77,1.07,1.14,1.01,2.14-0.57l0.7,0.33l-2.78,5.8l-0.7-0.33c0.57-1.57,0.53-2.44-0.05-3.61
			c-0.75-1.49-1.72-3.18-4.02-6.95c-2.71,0.29-5.02,0.57-6.73,0.76c-2.18,0.27-2.66,0.44-3.73,2.16L16.59,73l2.97-6.2l0.7,0.33
			c-0.59,1.62-0.34,1.8,0.52,1.72c1.78-0.13,3.66-0.36,5.88-0.64c-1.03-1.69-2.02-3.26-2.85-4.46c-0.78-1.11-1.17-1.08-2.15,0.47
			l-0.7-0.33l2.72-5.68l0.7,0.33c-0.65,1.99-0.66,2.53,0.34,4.33c0.78,1.38,1.26,2.23,3.03,5.19c2.76-0.33,5.44-0.61,7.81-0.91
			c2.47-0.29,2.98-0.66,4.01-2.36l0.7,0.33L37.1,71.74z"/>
		<path class="st2" d="M57.84,46.09l-0.5-0.59c1.18-1.25,1.13-1.57,0.16-1.95c-1.18-0.41-3.44-1.21-6.5-2.18
			c0.31,2.38,0.61,4.62,0.96,6.45c0.26,1.3,0.63,1.39,2.18,0.36l0.5,0.59l-4.92,4.15l-0.5-0.59c1.16-1.2,1.48-2.01,1.44-3.31
			c-0.07-1.67-0.26-3.61-0.81-7.98c-2.59-0.85-4.81-1.54-6.45-2.07c-2.1-0.65-2.61-0.69-4.29,0.44l-0.5-0.59l5.25-4.43l0.5,0.59
			c-1.2,1.23-1.05,1.5-0.23,1.78c1.67,0.61,3.49,1.18,5.63,1.83c-0.25-1.96-0.5-3.8-0.77-5.24c-0.26-1.33-0.62-1.46-2.16-0.46
			l-0.5-0.59l4.81-4.06l0.5,0.59c-1.4,1.55-1.64,2.04-1.46,4.09c0.14,1.58,0.23,2.55,0.63,5.97c2.65,0.83,5.21,1.68,7.5,2.38
			c2.37,0.75,2.98,0.63,4.63-0.51l0.5,0.59L57.84,46.09z"/>
		<path class="st2" d="M62.31,42.66L61.9,42c1.78-1.41,1.91-1.63,0.67-3.61l-5.83-9.28c-1.26-2.01-1.51-1.99-3.56-0.99l-0.41-0.65
			l6.26-3.93l0.41,0.65c-1.81,1.43-1.94,1.64-0.67,3.65l5.83,9.28c1.26,2.01,1.49,1.96,3.57,0.96l0.41,0.65L62.31,42.66z"/>
		<path class="st2" d="M95.16,29.63l-0.13-0.76c1.65-0.48,1.77-0.78,1.12-1.6c-0.81-0.95-2.36-2.78-4.51-5.16
			c-0.93,2.21-1.8,4.29-2.42,6.06c-0.43,1.25-0.16,1.51,1.7,1.41l0.13,0.76l-6.34,1.1l-0.13-0.76c1.6-0.45,2.29-0.99,2.91-2.13
			c0.78-1.48,1.59-3.25,3.33-7.31c-1.81-2.04-3.37-3.76-4.52-5.04c-1.49-1.62-1.9-1.91-3.93-1.78l-0.13-0.76l6.77-1.18l0.13,0.76
			c-1.66,0.46-1.66,0.77-1.1,1.42c1.14,1.37,2.42,2.78,3.94,4.42c0.78-1.82,1.49-3.54,1.98-4.91c0.45-1.28,0.2-1.58-1.63-1.48
			l-0.13-0.76l6.2-1.08l0.13,0.76c-1.99,0.63-2.44,0.93-3.33,2.79c-0.68,1.43-1.08,2.32-2.47,5.47c1.87,2.06,3.65,4.07,5.28,5.84
			c1.67,1.84,2.26,2.04,4.25,1.9l0.13,0.76L95.16,29.63z"/>
		<path class="st2" d="M100.75,28.92l-0.02-0.77c2.25-0.32,2.47-0.44,2.4-2.78l-0.35-10.95c-0.08-2.37-0.3-2.48-2.57-2.65
			l-0.02-0.77l7.39-0.24l0.02,0.77c-2.28,0.32-2.5,0.44-2.42,2.81l0.35,10.95c0.08,2.37,0.3,2.45,2.6,2.62l0.03,0.77L100.75,28.92z"
			/>
		<path class="st2" d="M108.82,28.7l0.05-0.77c2.28-0.09,2.5-0.19,2.67-2.53l0.76-10.93c0.16-2.37-0.05-2.49-2.29-2.9l0.05-0.77
			l7.38,0.51l-0.05,0.77c-2.3,0.09-2.53,0.18-2.69,2.55l-0.76,10.93c-0.16,2.37,0.05,2.47,2.32,2.87l-0.05,0.77L108.82,28.7z"/>
	</g>
</g>
</svg>
