<?xml version="1.0" encoding="utf-8"?>
<!-- Generator: Adobe Illustrator 24.0.0, SVG Export Plug-In . SVG Version: 6.00 Build 0)  -->
<svg version="1.1" id="Layer_1" xmlns="http://www.w3.org/2000/svg" xmlns:xlink="http://www.w3.org/1999/xlink" x="0px" y="0px"
	 viewBox="0 0 214 214" style="enable-background:new 0 0 214 214;" xml:space="preserve">
<style type="text/css">
	.st0{fill:none;stroke:#A98B55;stroke-width:4;stroke-miterlimit:10;}
	.st1{fill:none;stroke:#A98B55;stroke-width:3;stroke-miterlimit:10;}
	.st2{fill:#2A2A16;stroke:#2A2A16;stroke-width:0.25;stroke-miterlimit:10;}
</style>
<g>
	<circle class="st0" cx="106.99" cy="107.03" r="59.76"/>
	<circle class="st1" cx="106.99" cy="107.92" r="35.97"/>
	<g>
		<g>
			<path class="st2" d="M125.95,70.43l0.2-0.36c1.13,0.48,1.26,0.49,1.88-0.61l2.9-5.13c0.63-1.11,0.55-1.22-0.44-1.94l0.21-0.36
				l3.46,1.96l-0.2,0.36c-1.14-0.49-1.27-0.5-1.9,0.61l-2.9,5.13c-0.63,1.11-0.55,1.21,0.46,1.93l-0.21,0.36L125.95,70.43z"/>
			<path class="st2" d="M139.4,81.16l0.33-0.25c0.84,0.89,0.96,0.95,1.96,0.19l4.7-3.54c1.02-0.77,0.99-0.9,0.37-1.95l0.33-0.25
				l2.39,3.17l-0.33,0.25c-0.85-0.9-0.97-0.96-1.98-0.19l-4.7,3.54c-1.02,0.77-0.98,0.89-0.35,1.95l-0.33,0.25L139.4,81.16z"/>
			<path class="st2" d="M142,84.64l0.36-0.21c0.74,0.97,0.85,1.04,1.93,0.39l5.04-3.04c1.09-0.66,1.08-0.79,0.57-1.9l0.36-0.21
				l2.05,3.4l-0.36,0.21c-0.75-0.98-0.86-1.06-1.95-0.4l-5.04,3.04c-1.09,0.66-1.07,0.78-0.55,1.91l-0.36,0.21L142,84.64z"/>
			<path class="st2" d="M148.44,100.61l0.41-0.05c0.29,1.19,0.36,1.3,1.61,1.14l5.84-0.76c1.27-0.16,1.31-0.29,1.29-1.51l0.41-0.05
				l0.51,3.94l-0.41,0.05c-0.29-1.2-0.36-1.31-1.63-1.15l-5.84,0.76c-1.26,0.16-1.29,0.29-1.27,1.53l-0.41,0.05L148.44,100.61z"/>
			<path class="st2" d="M148.97,104.89l0.42-0.01c0.17,1.21,0.23,1.33,1.49,1.3l5.89-0.16c1.28-0.03,1.33-0.15,1.43-1.37l0.42-0.01
				l0.11,3.98l-0.42,0.01c-0.17-1.23-0.23-1.34-1.5-1.31l-5.89,0.16c-1.28,0.03-1.32,0.15-1.42,1.39l-0.42,0.01L148.97,104.89z"/>
			<path class="st2" d="M149.07,109.25l0.41,0.03c0.04,1.22,0.09,1.34,1.35,1.44l5.87,0.44c1.27,0.1,1.34-0.02,1.56-1.22l0.41,0.03
				l-0.3,3.96l-0.41-0.03c-0.04-1.24-0.09-1.36-1.36-1.46l-5.87-0.44c-1.27-0.1-1.32,0.02-1.55,1.24l-0.41-0.03L149.07,109.25z"/>
			<path class="st2" d="M146.11,123.62l0.38,0.17c-0.38,1.16-0.38,1.29,0.77,1.82l5.36,2.44c1.16,0.53,1.26,0.45,1.89-0.61
				l0.38,0.17l-1.65,3.62l-0.38-0.17c0.39-1.18,0.38-1.31-0.78-1.84l-5.36-2.44c-1.16-0.53-1.25-0.44-1.88,0.63l-0.38-0.17
				L146.11,123.62z"/>
			<path class="st2" d="M147.29,140.13c0.43-0.91,0.45-1.19-0.38-2.37c-0.6-0.87-3.66-5.29-4.81-6.89l0.27-0.41
				c2.48,0.56,6.09,1.38,8.39,1.86c1.15,0.25,1.41,0.12,1.97-0.59l0.35,0.23l-2.05,3.16l-0.35-0.23c0.5-0.99,0.38-1.13-0.19-1.26
				c-1.11-0.28-4.18-0.97-6.75-1.52c1.18,1.7,2.68,3.83,3.87,5.43c0.54,0.74,0.75,0.66,1.54-0.28l0.35,0.23l-1.85,2.86
				L147.29,140.13z"/>
			<path class="st2" d="M129.88,154.21c0.77-0.64,0.91-0.89,0.66-2.3c-0.18-1.04-1.09-6.34-1.46-8.28l0.42-0.26
				c2.01,1.56,4.94,3.82,6.82,5.23c0.94,0.71,1.23,0.7,2.04,0.29l0.22,0.35l-3.19,2l-0.22-0.35c0.87-0.68,0.82-0.87,0.35-1.22
				c-0.89-0.72-3.38-2.64-5.48-4.23c0.35,2.04,0.81,4.61,1.21,6.56c0.18,0.9,0.4,0.92,1.51,0.4l0.22,0.35l-2.89,1.81L129.88,154.21z
				"/>
			<path class="st2" d="M108.11,159.55c0.97-0.25,1.21-0.42,1.57-1.8c0.28-1.02,1.71-6.2,2.21-8.11l0.49-0.06
				c1.16,2.27,2.84,5.56,3.94,7.64c0.54,1.04,0.81,1.16,1.72,1.14l0.05,0.41l-3.74,0.45l-0.05-0.41c1.08-0.25,1.11-0.43,0.84-0.95
				c-0.5-1.03-1.93-3.83-3.15-6.16c-0.55,1.99-1.23,4.51-1.7,6.45c-0.22,0.89-0.03,1,1.2,1l0.05,0.41l-3.39,0.41L108.11,159.55z"/>
			<path class="st2" d="M107.89,150.11l-0.01,0.42c-1.22,0.1-1.34,0.16-1.37,1.42l-0.15,5.89c-0.03,1.28,0.08,1.34,1.3,1.5
				l-0.01,0.42l-3.97-0.1l0.01-0.42c1.23-0.1,1.35-0.16,1.39-1.43l0.15-5.89c0.03-1.28-0.08-1.32-1.31-1.49l0.01-0.42L107.89,150.11
				z"/>
			<path class="st2" d="M84.23,154.26c0.98,0.22,1.26,0.19,2.23-0.88c0.72-0.78,4.38-4.71,5.7-6.18l0.46,0.17
				c-0.02,2.54-0.04,6.24-0.02,8.59c0,1.17,0.19,1.4,1,1.8l-0.15,0.39l-3.53-1.32l0.15-0.39c1.07,0.27,1.19,0.13,1.19-0.46
				c0.03-1.14,0.05-4.29,0.04-6.92c-1.41,1.52-3.17,3.44-4.48,4.94c-0.61,0.69-0.49,0.88,0.6,1.44l-0.15,0.39l-3.19-1.2
				L84.23,154.26z"/>
			<path class="st2" d="M88.38,145.79l-0.2,0.36c-1.13-0.47-1.26-0.48-1.87,0.62l-2.85,5.15c-0.62,1.12-0.54,1.22,0.46,1.93
				l-0.2,0.36l-3.48-1.93l0.2-0.36c1.14,0.48,1.27,0.49,1.89-0.63l2.85-5.15c0.62-1.12,0.54-1.21-0.48-1.93l0.2-0.36L88.38,145.79z"
				/>
			<path class="st2" d="M84.58,143.67l-0.24,0.34c-1.07-0.59-1.21-0.61-1.93,0.43l-3.37,4.83c-0.73,1.05-0.67,1.16,0.25,1.97
				l-0.24,0.34l-3.26-2.27l0.24-0.34c1.09,0.59,1.22,0.61,1.95-0.43l3.37-4.83c0.73-1.05,0.66-1.15-0.28-1.96l0.24-0.34
				L84.58,143.67z"/>
			<path class="st2" d="M64.24,136.79c0.74,0.68,1,0.79,2.37,0.35c1.01-0.32,6.14-1.91,8.02-2.52l0.31,0.38
				c-1.28,2.2-3.14,5.39-4.29,7.44c-0.58,1.02-0.53,1.31-0.02,2.06l-0.32,0.26l-2.4-2.9l0.32-0.26c0.79,0.77,0.97,0.7,1.26,0.19
				c0.6-0.98,2.18-3.69,3.48-5.98c-1.97,0.62-4.46,1.4-6.34,2.06c-0.87,0.3-0.86,0.52-0.2,1.55l-0.32,0.26l-2.18-2.63L64.24,136.79z
				"/>
			<path class="st2" d="M72.06,131.52l-0.35,0.22c-0.75-0.97-0.86-1.04-1.94-0.39l-5.03,3.06c-1.09,0.66-1.08,0.79-0.56,1.9
				l-0.35,0.22l-2.06-3.4l0.35-0.22c0.75,0.98,0.87,1.05,1.96,0.39l5.03-3.06c1.09-0.66,1.07-0.79,0.54-1.91l0.35-0.22L72.06,131.52
				z"/>
			<path class="st2" d="M69.81,127.79l-0.38,0.18c-0.64-1.04-0.75-1.13-1.89-0.58l-5.32,2.52c-1.15,0.55-1.16,0.68-0.76,1.84
				l-0.38,0.18l-1.7-3.59l0.38-0.18c0.65,1.06,0.75,1.14,1.91,0.59l5.32-2.52c1.15-0.55,1.14-0.67,0.74-1.84l0.38-0.18L69.81,127.79
				z"/>
			<path class="st2" d="M67.98,123.87l-0.39,0.14c-0.53-1.1-0.63-1.2-1.81-0.78l-5.56,1.96c-1.2,0.42-1.22,0.56-0.94,1.75
				l-0.39,0.14l-1.32-3.75l0.39-0.14c0.54,1.12,0.63,1.21,1.83,0.79l5.55-1.96c1.2-0.42,1.21-0.55,0.92-1.76l0.39-0.14L67.98,123.87
				z"/>
			<path class="st2" d="M65.42,114.69l-0.41,0.05c-0.27-1.19-0.34-1.31-1.59-1.17l-5.85,0.65c-1.27,0.14-1.31,0.26-1.31,1.49
				l-0.41,0.05l-0.44-3.95l0.41-0.04c0.27,1.21,0.34,1.32,1.61,1.18l5.85-0.65c1.27-0.14,1.3-0.26,1.3-1.5l0.41-0.04L65.42,114.69z"
				/>
			<path class="st2" d="M64.99,105.93l-0.42-0.01c-0.08-0.92-0.22-1.02-0.72-0.76c-0.59,0.33-1.72,0.95-3.2,1.83
				c1.06,0.73,2.07,1.41,2.93,1.92c0.61,0.36,0.78,0.24,0.93-0.75l0.42,0.01l-0.1,3.46l-0.42-0.01c-0.06-0.89-0.28-1.31-0.81-1.76
				c-0.7-0.57-1.54-1.19-3.49-2.53c-1.27,0.74-2.34,1.37-3.14,1.84c-1.01,0.61-1.21,0.8-1.36,1.88l-0.42-0.01l0.1-3.69l0.42,0.01
				c0.06,0.92,0.23,0.96,0.63,0.73c0.84-0.45,1.72-0.98,2.75-1.6c-0.87-0.6-1.7-1.16-2.38-1.57c-0.63-0.37-0.81-0.27-0.95,0.7
				l-0.42-0.01l0.09-3.38l0.42,0.01c0.12,1.12,0.23,1.39,1.12,2.05c0.68,0.51,1.11,0.82,2.62,1.88c1.28-0.77,2.54-1.49,3.64-2.15
				c1.15-0.68,1.32-0.97,1.45-2.04l0.42,0.01L64.99,105.93z"/>
			<path class="st2" d="M69.59,88.79l-0.37-0.18c0.31-0.87,0.22-1.02-0.34-0.99c-0.67,0.05-1.96,0.15-3.66,0.34
				c0.67,1.1,1.3,2.14,1.87,2.96c0.41,0.58,0.61,0.54,1.15-0.3l0.37,0.18l-1.52,3.1l-0.37-0.18c0.31-0.84,0.29-1.31-0.01-1.94
				c-0.4-0.81-0.91-1.72-2.13-3.75c-1.46,0.15-2.7,0.28-3.62,0.38c-1.17,0.14-1.43,0.22-2.01,1.15l-0.37-0.18l1.62-3.32l0.37,0.18
				c-0.32,0.86-0.19,0.96,0.27,0.93c0.95-0.06,1.97-0.18,3.16-0.32c-0.54-0.91-1.07-1.76-1.51-2.41c-0.42-0.6-0.62-0.58-1.16,0.24
				l-0.37-0.18l1.49-3.04l0.37,0.18c-0.36,1.06-0.37,1.36,0.17,2.33c0.41,0.75,0.67,1.2,1.6,2.8c1.48-0.17,2.92-0.3,4.2-0.45
				c1.33-0.14,1.6-0.34,2.16-1.25l0.37,0.18L69.59,88.79z"/>
			<path class="st2" d="M80.85,75.08l-0.27-0.32c0.64-0.67,0.61-0.84,0.1-1.04c-0.63-0.23-1.84-0.67-3.48-1.2
				c0.16,1.28,0.31,2.48,0.49,3.47c0.14,0.7,0.33,0.75,1.17,0.2l0.27,0.32l-2.66,2.21L76.2,78.4c0.63-0.64,0.81-1.07,0.79-1.77
				c-0.03-0.9-0.13-1.94-0.4-4.29c-1.39-0.47-2.58-0.85-3.45-1.14c-1.13-0.36-1.4-0.38-2.31,0.22l-0.27-0.32l2.84-2.36l0.27,0.32
				c-0.65,0.66-0.57,0.8-0.13,0.96c0.9,0.34,1.87,0.65,3.01,1.01c-0.12-1.05-0.25-2.05-0.39-2.82c-0.13-0.72-0.33-0.79-1.16-0.25
				l-0.27-0.32l2.6-2.16l0.27,0.32c-0.76,0.83-0.89,1.09-0.8,2.19c0.07,0.85,0.12,1.37,0.31,3.21c1.42,0.46,2.79,0.92,4.02,1.31
				c1.27,0.41,1.6,0.35,2.49-0.25l0.27,0.32L80.85,75.08z"/>
			<path class="st2" d="M83.29,73.24l-0.22-0.35c0.97-0.75,1.04-0.86,0.37-1.94l-3.09-5.02c-0.67-1.09-0.8-1.07-1.91-0.55
				l-0.22-0.35l3.39-2.09l0.22,0.35c-0.98,0.76-1.05,0.87-0.38,1.96l3.09,5.02c0.67,1.09,0.79,1.06,1.91,0.53l0.22,0.35L83.29,73.24
				z"/>
			<path class="st2" d="M101.02,66.39l-0.07-0.41c0.89-0.25,0.95-0.41,0.61-0.85c-0.43-0.52-1.25-1.51-2.4-2.79
				c-0.51,1.18-0.99,2.3-1.33,3.24c-0.24,0.67-0.09,0.81,0.91,0.77l0.07,0.41l-3.41,0.56l-0.07-0.41c0.86-0.23,1.24-0.52,1.57-1.13
				c0.43-0.79,0.87-1.74,1.83-3.9c-0.96-1.1-1.79-2.04-2.4-2.73c-0.79-0.88-1.01-1.04-2.1-0.98l-0.07-0.41l3.64-0.6l0.07,0.41
				c-0.89,0.24-0.9,0.4-0.6,0.76c0.6,0.74,1.28,1.5,2.09,2.39c0.43-0.97,0.82-1.89,1.09-2.63c0.25-0.69,0.12-0.85-0.87-0.8
				l-0.07-0.41l3.34-0.55l0.07,0.41c-1.07,0.33-1.32,0.49-1.8,1.48c-0.37,0.77-0.59,1.24-1.35,2.93c0.99,1.11,1.94,2.21,2.8,3.16
				c0.88,1,1.2,1.11,2.27,1.04l0.07,0.41L101.02,66.39z"/>
			<path class="st2" d="M104.03,66.04l-0.01-0.42c1.21-0.16,1.33-0.22,1.3-1.48l-0.13-5.89c-0.03-1.28-0.15-1.33-1.37-1.44
				l-0.01-0.42l3.97-0.09l0.01,0.42c-1.23,0.16-1.35,0.22-1.32,1.5l0.13,5.89c0.03,1.28,0.15,1.32,1.38,1.42l0.01,0.42L104.03,66.04
				z"/>
			<path class="st2" d="M108.39,65.95l0.03-0.41c1.22-0.04,1.35-0.09,1.45-1.34l0.47-5.87c0.1-1.27-0.01-1.34-1.21-1.57l0.03-0.41
				l3.96,0.31l-0.03,0.41c-1.24,0.04-1.36,0.09-1.46,1.36l-0.47,5.87c-0.1,1.27,0.01,1.33,1.23,1.56l-0.03,0.41L108.39,65.95z"/>
		</g>
	</g>
</g>
</svg>
